<svg xmlns="http://www.w3.org/2000/svg" viewBox="0 0 40 40" width="40" height="40">
  <rect width="40" height="40" rx="8" fill="#3B1F0E"/>
  <g transform="translate(4.4 4.4) scale(0.78)" stroke="#C8860A" stroke-linecap="round" fill="none">
    <path d="M3 33 L24.6 11.2 C 25.2 10.6, 26.2 10.6, 26.8 11.2 C 27.4 11.8, 27.4 12.8, 26.8 13.4 L 4.6 34.6 Z" fill="#C8860A" stroke="none"/>
    <g transform="rotate(47 28.6 9.4)">
      <ellipse cx="28.6" cy="9.4" rx="1.7" ry="3.4" stroke-width="1.6"/>
    </g>
    <path d="M25.5 1 C 26.6 4.2, 27.4 6.8, 28.6 9.4 C 30.6 13.8, 35.6 16.4, 33.2 20.6 C 30.8 24.8, 23 23.4, 17.6 26 C 12 28.6, 12.4 34.4, 18.2 35.2 C 23.6 36, 26.4 31.6, 21.6 28.4" stroke-width="1.6"/>
  </g>
</svg>
