<svg xmlns="http://www.w3.org/2000/svg" viewBox="0 0 460 280">
  <rect width="460" height="280" fill="#F0E6D3"/>

  <text x="230" y="62" text-anchor="middle" font-family="'Playfair Display', Georgia, serif" font-weight="500" font-size="27" letter-spacing="9" fill="#1A1008">CORDONNERIE</text>
  <text x="230" y="126" text-anchor="middle" font-family="'Playfair Display', Georgia, serif" font-weight="700" font-size="52" letter-spacing="3" fill="#1A1008">SAINT BRUNO</text>

  <!-- semelle vue de dessous, à l'horizontale, encadrée de deux filets -->
  <g stroke="#C8860A" fill="none" stroke-linecap="round" stroke-linejoin="round">
    <line x1="58" y1="190" x2="176" y2="190" stroke-width="2"/>
    <line x1="284" y1="190" x2="402" y2="190" stroke-width="2"/>
    <g transform="translate(270 166) rotate(90) scale(0.8)">
      <path d="M30 3 C 42 3, 50 15, 50 31 C 50 43, 46 49, 44 57 C 43 63, 44 70, 44 78 C 44 90, 38 96, 30 96 C 22 96, 16 90, 16 78 C 16 70, 17 63, 16 57 C 14 49, 10 43, 10 31 C 10 15, 18 3, 30 3 Z" stroke-width="2.2"/>
      <path d="M30 8 C 40 8, 46 18, 46 31 C 46 42, 42 48, 40 56 C 39 63, 40 70, 40 78 C 40 87, 35 92, 30 92 C 25 92, 20 87, 20 78 C 20 70, 21 63, 20 56 C 18 48, 14 42, 14 31 C 14 18, 20 8, 30 8 Z" stroke-width="1.2" stroke-dasharray="1.6 3.6"/>
      <path d="M17 62 C 24 66, 36 66, 43 62" stroke-width="1.6"/>
    </g>
  </g>

  <text x="230" y="250" text-anchor="middle" font-family="'Playfair Display', Georgia, serif" font-weight="500" font-size="17" letter-spacing="6" fill="#7A726A">ARTISAN DEPUIS 1989</text>
</svg>
